#
#
#

mtllib cube.mtl


#
# cube Mesh
#
g cube Mesh

v 0.358557 0.687293 -1.795933
v 0.356995 0.660484 -1.334641
v 0.349544 0.120516 -1.366048
v 0.351106 0.147325 -1.827339
v -0.189772 0.154870 -1.828733
v -0.191334 0.128061 -1.367441
v -0.183883 0.668029 -1.336034
v -0.182321 0.694837 -1.797326
vn 0.999899 -0.013947 0.002575
vn -0.999899 0.013947 -0.002575
vn 0.013774 0.998218 0.058060
vn -0.013774 -0.998218 -0.058060
vn -0.003381 -0.058019 0.998310
vn 0.003381 0.058019 -0.998310
f 1//1 2//1 3//1
f 1//1 3//1 4//1
f 5//2 6//2 7//2
f 5//2 7//2 8//2
f 2//3 1//3 8//3
f 2//3 8//3 7//3
f 4//4 3//4 6//4
f 4//4 6//4 5//4
f 3//5 2//5 7//5
f 3//5 7//5 6//5
f 1//6 4//6 5//6
f 1//6 5//6 8//6
